<svg xmlns="http://www.w3.org/2000/svg" version="1.1" xmlns:xlink="http://www.w3.org/1999/xlink" xmlns:svgjs="http://svgjs.dev/svgjs" width="1500" height="600" preserveAspectRatio="none" viewBox="0 0 1500 600"><g mask="url(&quot;#SvgjsMask1195&quot;)" fill="none"><rect width="1500" height="600" x="0" y="0" fill="rgba(236, 236, 243, 1)"></rect><path d="M0,594.605C121.495,603.28,245.983,606.419,355.628,553.369C472.865,496.646,604.044,415.876,632.209,288.72C660.565,160.701,528.746,55.399,493.928,-71.016C465.09,-175.719,514.762,-302.41,446.2,-386.634C377.471,-471.063,245.937,-454.334,146.257,-498.106C27.01,-550.47,-73.262,-711.28,-196.379,-668.804C-321.57,-625.612,-286.204,-423.129,-369.494,-320.168C-448.242,-222.822,-623.224,-214.485,-660.575,-94.976C-697.426,22.934,-608.13,142.378,-547.734,250.142C-491.394,350.669,-421.974,443.465,-324.423,504.813C-227.475,565.782,-114.235,586.449,0,594.605" fill="#8585b2"></path><path d="M1500 941.381C1570.753 947.3879999999999 1649.362 963.696 1707.9470000000001 923.572 1766.336 883.582 1760.743 796.08 1799.0439999999999 736.569 1846.52 662.803 1951.915 621.523 1958.6399999999999 534.058 1965.298 447.46799999999996 1887.462 379.161 1831.6399999999999 312.632 1775.013 245.144 1719.771 162.762 1633.237 146.238 1547.719 129.90800000000002 1474.604 204.48700000000002 1390.91 228.473 1306.465 252.675 1189.849 215.65800000000002 1139.601 287.713 1087.946 361.786 1166.5140000000001 461.59000000000003 1165.373 551.888 1164.437 625.985 1103.799 699.484 1133.54 767.357 1163.292 835.254 1246.607 858.2909999999999 1313.57 890.0899999999999 1372.995 918.31 1434.451 935.816 1500 941.381" fill="#ffffff"></path></g><defs><mask id="SvgjsMask1195"><rect width="1500" height="600" fill="#ffffff"></rect></mask></defs></svg>